<svg width="55" height="55" xmlns="http://www.w3.org/2000/svg" xmlns:xlink="http://www.w3.org/1999/xlink" xml:space="preserve" overflow="hidden"><g transform="translate(-930 -24)"><path d="M967.24 33.0349C963.911 33.0349 960.321 35.1318 957.5 40.7292 954.68 35.1329 951.089 33.0349 947.76 33.0349 942.572 33.0349 938.021 38.1339 938.021 43.0208 938.021 55.0521 957.5 69.9479 957.5 69.9479 957.5 69.9479 976.979 55.0521 976.979 43.0208 976.979 38.1344 972.428 33.0349 967.24 33.0349ZM957.5 68.4853C954.071 65.7158 939.167 53.0944 939.167 43.0208 939.257 40.754 940.187 38.6019 941.777 36.9834 943.307 35.2742 945.468 34.2621 947.76 34.1807 951.134 34.1807 954.148 36.6236 956.477 41.2448L957.5 43.2752 958.523 41.2448C960.852 36.6236 963.866 34.1807 967.24 34.1807 971.577 34.1807 975.833 38.5595 975.833 43.0208 975.833 53.0944 960.929 65.7158 957.5 68.4853Z" stroke="#000000" stroke-width="2.03704"/></g></svg>