<svg width="53" height="55" xmlns="http://www.w3.org/2000/svg" xmlns:xlink="http://www.w3.org/1999/xlink" xml:space="preserve" overflow="hidden"><g transform="translate(-1167 -22)"><path d="M35.3333 16.5625C35.3333 21.441 31.3785 25.3958 26.5 25.3958 21.6215 25.3958 17.6667 21.441 17.6667 16.5625 17.6667 11.684 21.6215 7.72917 26.5 7.72917 31.3785 7.72917 35.3333 11.684 35.3333 16.5625Z" stroke="#000000" stroke-width="2.94444" fill="#FFFFFF" transform="matrix(1 0 0 1.03774 1167 22)"/><path d="M44.1667 45.2708 44.1667 36.4375C44.1667 35.1125 43.5042 33.7875 42.4 32.9042 39.9708 30.9167 36.8792 29.5917 33.7875 28.7083 31.5792 28.0458 29.15 27.6042 26.5 27.6042 24.0708 27.6042 21.6417 28.0458 19.2125 28.7083 16.1208 29.5917 13.0292 31.1375 10.6 32.9042 9.49583 33.7875 8.83333 35.1125 8.83333 36.4375L8.83333 45.2708 44.1667 45.2708Z" stroke="#000000" stroke-width="2.94444" fill="#FFFFFF" transform="matrix(1 0 0 1.03774 1167 22)"/></g></svg>